<?xml version="1.0" encoding="UTF-8"?><svg id="_이어_1" xmlns="http://www.w3.org/2000/svg" viewBox="0 0 78.43 79.3"><defs><style>.cls-1{fill:#ffd02e;}.cls-2{fill:#fff;}.cls-3{fill:#753bfc;}.cls-4{fill:#f0a5c1;}</style></defs><circle class="cls-3" cx="39.21" cy="39.65" r="37.83"/><g><path class="cls-1" d="M22.24,41.9s3.82-6.93,9.63-5.95c13.68,2.31,5.56,17.28,19.68,25.4H23.8l-1.56-19.45Z"/><path class="cls-4" d="M23.8,61.47c.95-.58,1.89-1.19,2.81-1.81,2.15-1.43,4.26-2.92,6.31-4.48,2.32-1.77,4.59-3.64,6.62-5.74,1.35-1.39,2.37-3.07,3.73-4.45,1.25-1.27,2.74-2.29,4.38-2.98,2.47-1.04,4.89-.85,7.35,.5,.55,.3,1.05,.72,1.36,1.27l-1.23,17.71H23.8Z"/><path class="cls-2" d="M55.41,63.76H23.79c-1.24,0-2.28-.94-2.4-2.18l-3.62-37.78c-.13-1.32,.84-2.5,2.17-2.62,1.32-.13,2.5,.84,2.62,2.17l3.41,35.61h27.24l2.64-27.98c.12-1.32,1.28-2.3,2.62-2.17,1.32,.12,2.29,1.3,2.17,2.62l-2.84,30.16c-.12,1.23-1.15,2.18-2.4,2.18Z"/><circle class="cls-2" cx="46.86" cy="34.22" r="4.15"/></g></svg>