<?xml version="1.0" encoding="UTF-8"?><svg id="_이어_1" xmlns="http://www.w3.org/2000/svg" viewBox="0 0 202.96 79.3"><defs><style>.cls-1{fill:#ffd02e;}.cls-2{fill:#fff;}.cls-3{fill:#753bfc;}.cls-4{fill:#f0a5c1;}</style></defs><circle class="cls-3" cx="38.88" cy="39.65" r="37.83"/><g><path class="cls-1" d="M21.91,41.9s3.82-6.93,9.63-5.95c13.68,2.31,5.56,17.28,19.68,25.4H23.47l-1.56-19.45Z"/><path class="cls-4" d="M23.47,61.47c.95-.58,1.89-1.19,2.81-1.81,2.15-1.43,4.26-2.92,6.31-4.48,2.32-1.77,4.59-3.64,6.62-5.74,1.35-1.39,2.37-3.07,3.73-4.45,1.25-1.27,2.74-2.29,4.38-2.98,2.47-1.04,4.89-.85,7.35,.5,.55,.3,1.05,.72,1.36,1.27l-1.23,17.71H23.47Z"/><path class="cls-2" d="M55.08,63.76H23.47c-1.24,0-2.28-.94-2.4-2.18l-3.62-37.78c-.13-1.32,.84-2.5,2.17-2.62,1.32-.13,2.5,.84,2.62,2.17l3.41,35.61h27.24l2.64-27.98c.12-1.32,1.28-2.3,2.62-2.17,1.32,.12,2.29,1.3,2.17,2.62l-2.84,30.16c-.12,1.23-1.15,2.18-2.4,2.18Z"/><circle class="cls-2" cx="46.53" cy="34.22" r="4.15"/></g><g><path class="cls-3" d="M165.63,57.82c-.48,0-.69,.16-.69,.58v.37c0,.37,.21,.58,.69,.58h30.76c.9,0,1.7,.16,2.33,.58,.58,.37,.9,1.11,.9,2.28s-.32,1.91-.9,2.33c-.64,.42-1.43,.64-2.33,.64h-34.32c-2.02,0-3.45-.42-4.19-1.17-.85-.85-1.22-2.18-1.22-4.08v-2.49c0-1.91,.37-3.24,1.22-4.08,.74-.74,2.18-1.17,4.19-1.17h27.58c.42,0,.69-.16,.69-.58v-.42c0-.37-.27-.58-.69-.58h-29.76c-.95,0-1.7-.21-2.28-.64-.64-.42-.96-1.17-.96-2.33s.32-1.86,.96-2.28c.58-.37,1.33-.58,2.28-.58h13.53v-2.07h-16.65c-1.38,0-2.28-.32-2.76-.96-.53-.64-.8-1.38-.8-2.33,0-.9,.27-1.7,.8-2.39,.48-.64,1.38-.95,2.76-.95h41.59c1.33,0,2.28,.32,2.81,.95,.48,.69,.74,1.49,.74,2.39,0,.96-.27,1.7-.74,2.33-.53,.64-1.48,.96-2.81,.96h-16.66v2.07h11.46c2.02,0,3.39,.42,4.24,1.17,.74,.85,1.17,2.18,1.17,4.08v2.55c0,1.91-.42,3.29-1.17,4.03-.85,.8-2.23,1.22-4.24,1.22h-27.53Zm28.38-23.81c-3.61-.53-6.84-1.49-9.71-2.87-2.86-1.27-5.15-2.97-6.74-4.98-1.7,2.01-3.93,3.71-6.79,4.98-2.92,1.38-6.15,2.33-9.65,2.87-1.59,.32-2.81,.11-3.66-.64-.85-.64-1.27-1.54-1.27-2.6,0-1.59,1.06-2.6,3.24-3.02,3.82-.74,6.9-1.8,9.34-3.18,2.39-1.33,3.87-3.08,4.4-5.2,.58-2.28,2.07-3.45,4.4-3.45,1.11,0,2.07,.32,2.86,.85,.74,.64,1.22,1.49,1.54,2.6,.21,1.06,.74,2.01,1.54,2.86,.74,.9,1.75,1.7,2.97,2.39,1.17,.74,2.6,1.33,4.19,1.86,1.59,.53,3.29,1.01,5.2,1.33,1.06,.21,1.86,.58,2.39,1.01,.42,.53,.69,1.17,.69,1.96,0,1.06-.42,1.96-1.27,2.6-.85,.74-2.07,.95-3.66,.64Z"/><g><path class="cls-3" d="M136.68,30.08c-1.38,0-2.28,.32-2.76,.9-.53,.64-.8,1.38-.8,2.28,0,.96,.27,1.7,.8,2.28,.48,.64,1.38,.96,2.76,.96h2.01v12.25c0,1.43,.37,2.44,1.22,2.97,.74,.64,1.7,.9,2.87,.9s2.07-.27,2.92-.9c.8-.53,1.22-1.54,1.22-2.97V19.53c0-1.38-.42-2.39-1.22-3.02-.85-.58-1.8-.9-2.92-.9s-2.12,.32-2.87,.9c-.85,.64-1.22,1.64-1.22,3.02v1.27h-2.01c-1.38,0-2.28,.32-2.76,.9-.53,.64-.8,1.38-.8,2.28,0,.95,.27,1.7,.8,2.28,.48,.64,1.38,.96,2.76,.96h2.01v2.86h-2.01Z"/><path class="cls-3" d="M105.86,22.97h22.76c1.32,0,2.28-.32,2.81-.96,.48-.58,.74-1.33,.74-2.28,0-.9-.27-1.7-.74-2.39-.53-.64-1.49-1.01-2.81-1.01h-22.76c-1.38,0-2.28,.37-2.76,1.01-.53,.69-.8,1.49-.8,2.39,0,.95,.26,1.7,.8,2.28,.48,.64,1.38,.96,2.76,.96Z"/><path class="cls-3" d="M147.18,59.04c-.53-.69-1.49-1.01-2.81-1.01h-29.38c-.42,0-.74-.11-.96-.26-.21-.21-.32-.53-.32-1.01v-5.25c0-1.38-.42-2.39-1.17-3.02-.85-.53-1.8-.85-2.92-.85s-2.12,.32-2.92,.85c-.85,.64-1.22,1.65-1.22,3.02v7.9c0,1.91,.37,3.24,1.17,4.08,.74,.74,2.18,1.17,4.19,1.17h33.52c1.33,0,2.28-.32,2.81-.95,.48-.64,.74-1.43,.74-2.33,0-.96-.26-1.7-.74-2.33Z"/><path class="cls-3" d="M132.49,42.92c.48-.58,.74-1.33,.74-2.28,0-.9-.27-1.7-.74-2.39-.53-.64-1.49-1.01-2.81-1.01h-2.49l.8-8.11c.11-1.38-.16-2.44-.9-3.13-.74-.64-1.7-1.01-2.81-1.11-1.17-.05-2.12,.21-2.92,.74-.85,.58-1.38,1.59-1.49,2.97l-.8,8.65h-13.74c-1.38,0-2.28,.37-2.76,1.01-.53,.69-.8,1.49-.8,2.39,0,.96,.27,1.7,.8,2.28,.48,.64,1.38,.95,2.76,.95h24.35c1.33,0,2.28-.32,2.81-.95Z"/></g><circle class="cls-3" cx="109.14" cy="30.31" r="4.06"/></g></svg>